<svg version="1.1" id="Layer_1" xmlns="http://www.w3.org/2000/svg" xmlns:xlink="http://www.w3.org/1999/xlink" x="0px" y="0px"
	 width="100%" viewBox="0 0 512 512" enable-background="new 0 0 512 512" xml:space="preserve">
<path fill="#FFFFFF" opacity="0" stroke="none" 
	d="
M300.000000,1.000000 
	C370.967743,1.000000 441.935516,1.000000 512.951660,1.000000 
	C512.951660,171.556915 512.951660,342.113831 512.951660,513.000000 
	C434.978882,513.000000 356.957275,513.000000 278.661041,512.622498 
	C294.577637,511.112549 310.345459,507.869507 325.852814,503.101440 
	C349.113647,495.949402 370.723572,485.400696 390.280365,471.011108 
	C400.836700,463.243988 410.892181,454.684753 420.454315,445.715973 
	C427.131348,439.453156 432.668335,431.956573 438.573700,424.893311 
	C449.531799,411.786469 458.068085,397.065033 465.422729,381.783539 
	C470.332489,371.582153 473.827698,360.662567 477.483582,349.903870 
	C482.972809,333.750153 485.946381,316.964142 486.791656,300.017151 
	C487.483917,286.137939 486.906342,272.122162 485.820892,258.250732 
	C484.958252,247.226898 483.310333,236.113373 480.536194,225.422394 
	C475.120789,204.552643 466.869446,184.757446 456.093170,165.954193 
	C442.059082,141.466339 423.556366,120.844574 402.139557,102.875610 
	C384.800629,88.327988 365.161133,77.245590 344.189209,68.622719 
	C321.068817,59.116459 296.951691,53.932018 272.054413,51.475643 
	C272.010101,44.396477 272.005737,37.780666 272.465332,31.095381 
	C280.570618,31.017279 288.212006,31.027819 295.853210,30.994497 
	C303.131866,30.962761 308.303925,25.178434 309.160492,18.090549 
	C310.156708,9.847331 305.640625,5.298229 300.000000,1.000000 
z"/>
<path fill="#FFFFFF" opacity="0" stroke="none" 
	d="
M236.000000,513.000000 
	C157.702240,513.000000 79.404488,513.000000 1.053367,513.000000 
	C1.053367,342.446442 1.053367,171.892853 1.053367,1.000000 
	C71.687737,1.000000 142.376022,1.000000 213.409424,1.326015 
	C206.739990,4.904469 204.414124,10.488689 204.911560,17.999207 
	C205.391556,25.246361 210.788162,30.941366 218.101456,30.999992 
	C226.067581,31.063854 234.033859,31.110828 241.999908,31.621674 
	C241.972885,38.683437 241.946014,45.288689 241.489685,51.930225 
	C238.644562,52.308815 236.223297,52.615993 233.814178,52.999432 
	C222.571091,54.788898 211.133820,55.810665 200.131531,58.566418 
	C177.139359,64.325287 155.603180,73.881065 135.074402,85.718643 
	C130.917816,81.414246 126.898659,77.440445 122.932625,73.414299 
	C115.283440,65.649178 105.759575,61.246353 95.146187,61.278877 
	C83.791397,61.313679 73.805130,66.089851 65.854660,74.607124 
	C58.858093,82.102478 51.481220,89.253220 44.678848,96.916992 
	C34.778519,108.071007 33.166229,126.294228 41.021877,138.092178 
	C46.517029,146.345062 54.337200,153.049820 61.046425,160.775681 
	C54.633648,173.784958 47.651615,186.190826 42.100163,199.206879 
	C33.273487,219.902100 28.384663,241.831741 27.210169,264.214691 
	C26.078270,285.785889 26.300505,307.480804 30.977247,328.820770 
	C35.208744,348.129089 40.973156,366.937653 49.961369,384.583710 
	C57.456581,399.298584 66.049362,413.312378 76.485008,426.259949 
	C88.641266,441.342346 102.231880,454.925140 117.498436,466.666382 
	C133.968582,479.333252 151.971680,489.555084 171.417145,497.194427 
	C188.644730,503.962494 206.284500,508.875397 224.683823,511.043915 
	C228.479996,511.491333 232.229172,512.337585 236.000000,513.000000 
z"/>
<path fill="#DE513C" opacity="1.000000" stroke="none" 
	d="
M272.094360,51.938999 
	C296.951691,53.932018 321.068817,59.116459 344.189209,68.622719 
	C365.161133,77.245590 384.800629,88.327988 402.139557,102.875610 
	C423.556366,120.844574 442.059082,141.466339 456.093170,165.954193 
	C466.869446,184.757446 475.120789,204.552643 480.536194,225.422394 
	C483.310333,236.113373 484.958252,247.226898 485.820892,258.250732 
	C486.906342,272.122162 487.483917,286.137939 486.791656,300.017151 
	C485.946381,316.964142 482.972809,333.750153 477.483582,349.903870 
	C473.827698,360.662567 470.332489,371.582153 465.422729,381.783539 
	C458.068085,397.065033 449.531799,411.786469 438.573700,424.893311 
	C432.668335,431.956573 427.131348,439.453156 420.454315,445.715973 
	C410.892181,454.684753 400.836700,463.243988 390.280365,471.011108 
	C370.723572,485.400696 349.113647,495.949402 325.852814,503.101440 
	C310.345459,507.869507 294.577637,511.112549 278.193176,512.622498 
	C271.312347,513.000000 264.624725,513.000000 257.468536,512.531372 
	C257.035736,493.376251 257.071503,474.689789 257.516357,455.916870 
	C262.628998,455.470612 267.332550,455.110840 272.447693,454.794861 
	C274.996613,454.555115 277.133331,454.266907 279.271362,453.988861 
	C302.134308,451.015289 323.545563,443.741028 343.425018,432.081573 
	C376.014801,412.967468 399.919067,386.025848 415.207245,351.519897 
	C422.796661,334.390320 427.328491,316.414551 428.884003,297.292175 
	C428.907959,287.074249 428.853790,277.267853 428.844116,267.017700 
	C428.078796,260.990051 427.505035,255.359894 426.420013,249.830063 
	C420.297882,218.628006 406.810181,191.000473 385.483643,167.380829 
	C355.082733,133.711121 317.165253,114.794525 271.581299,110.208160 
	C266.464294,109.750504 261.797852,109.405853 257.089844,108.590424 
	C257.027100,89.482727 257.005981,70.845802 257.444519,52.153038 
	C262.634247,52.044464 267.364319,51.991734 272.094360,51.938999 
z"/>
<path fill="#FC6249" opacity="1.000000" stroke="none" 
	d="
M257.107269,456.003357 
	C257.071503,474.689789 257.035736,493.376251 257.000000,512.531372 
	C250.312363,513.000000 243.624710,513.000000 236.468536,513.000000 
	C232.229172,512.337585 228.479996,511.491333 224.683823,511.043915 
	C206.284500,508.875397 188.644730,503.962494 171.417145,497.194427 
	C151.971680,489.555084 133.968582,479.333252 117.498436,466.666382 
	C102.231880,454.925140 88.641266,441.342346 76.485008,426.259949 
	C66.049362,413.312378 57.456581,399.298584 49.961369,384.583710 
	C40.973156,366.937653 35.208744,348.129089 30.977247,328.820770 
	C26.300505,307.480804 26.078270,285.785889 27.210169,264.214691 
	C28.384663,241.831741 33.273487,219.902100 42.100163,199.206879 
	C47.651615,186.190826 54.633648,173.784958 61.348545,160.590912 
	C62.139660,159.559799 62.609673,159.077332 62.964897,158.521515 
	C77.520729,135.745514 95.533218,116.129517 116.928307,99.631233 
	C122.948326,94.989044 129.128906,90.555069 135.235840,86.025589 
	C155.603180,73.881065 177.139359,64.325287 200.131531,58.566418 
	C211.133820,55.810665 222.571091,54.788898 233.814178,52.999432 
	C236.223297,52.615993 238.644562,52.308815 241.946671,52.056557 
	C247.550354,52.167366 252.267593,52.188126 256.984833,52.208881 
	C257.005981,70.845802 257.027100,89.482727 256.677094,108.714508 
	C251.540848,109.602455 246.775711,109.895546 241.591919,110.148392 
	C233.328995,111.426666 225.340164,112.182167 217.663452,114.153206 
	C158.770218,129.274338 118.020683,165.262863 95.434937,221.649689 
	C89.552536,236.335480 86.039680,251.697510 85.093544,267.965302 
	C85.069527,278.120972 85.116440,287.887512 85.108093,298.100861 
	C85.829391,304.294281 86.180168,310.136658 87.447784,315.772797 
	C101.375633,377.699188 137.594727,420.873535 196.599655,444.573608 
	C211.124039,450.407501 226.329208,453.751495 242.434921,454.895294 
	C247.624115,455.307373 252.365692,455.655365 257.107269,456.003357 
z"/>
<path fill="#FC6249" opacity="1.000000" stroke="none" 
	d="
M242.000061,31.165167 
	C234.033859,31.110828 226.067581,31.063854 218.101456,30.999992 
	C210.788162,30.941366 205.391556,25.246361 204.911560,17.999207 
	C204.414124,10.488689 206.739990,4.904469 213.877289,1.326015 
	C228.020889,1.000000 242.041794,1.000000 256.531342,1.468657 
	C256.995636,11.569528 256.991272,21.201742 256.525879,30.901669 
	C251.376572,31.034643 246.688309,31.099905 242.000061,31.165167 
z"/>
<path fill="#DE513C" opacity="1.000000" stroke="none" 
	d="
M256.986908,30.833956 
	C256.991272,21.201742 256.995636,11.569528 257.000000,1.468657 
	C271.020905,1.000000 285.041779,1.000000 299.531342,1.000000 
	C305.640625,5.298229 310.156708,9.847331 309.160492,18.090549 
	C308.303925,25.178434 303.131866,30.962761 295.853210,30.994497 
	C288.212006,31.027819 280.570618,31.017279 272.003723,31.028698 
	C266.381104,30.965643 261.683990,30.899799 256.986908,30.833956 
z"/>
<path fill="#26879C" opacity="1.000000" stroke="none" 
	d="
M256.525879,30.901669 
	C261.683990,30.899799 266.381104,30.965643 271.539795,31.098171 
	C272.005737,37.780666 272.010101,44.396477 272.054413,51.475643 
	C267.364319,51.991734 262.634247,52.044464 257.444519,52.153038 
	C252.267593,52.188126 247.550354,52.167366 242.376129,52.020279 
	C241.946014,45.288689 241.972885,38.683437 241.999908,31.621674 
	C246.688309,31.099905 251.376572,31.034643 256.525879,30.901669 
z"/>
<path fill="#115C6E" opacity="1.000000" stroke="none" 
	d="
M135.074402,85.718643 
	C129.128906,90.555069 122.948326,94.989044 116.928307,99.631233 
	C95.533218,116.129517 77.520729,135.745514 62.964897,158.521515 
	C62.609673,159.077332 62.139660,159.559799 61.421070,160.261261 
	C54.337200,153.049820 46.517029,146.345062 41.021877,138.092178 
	C33.166229,126.294228 34.778519,108.071007 44.678848,96.916992 
	C51.481220,89.253220 58.858093,82.102478 65.854660,74.607124 
	C73.805130,66.089851 83.791397,61.313679 95.146187,61.278877 
	C105.759575,61.246353 115.283440,65.649178 122.932625,73.414299 
	C126.898659,77.440445 130.917816,81.414246 135.074402,85.718643 
z"/>
<path fill="#96D1D9" opacity="1.000000" stroke="none" 
	d="
M428.805878,297.703735 
	C427.328491,316.414551 422.796661,334.390320 415.207245,351.519897 
	C399.919067,386.025848 376.014801,412.967468 343.425018,432.081573 
	C323.545563,443.741028 302.134308,451.015289 279.271362,453.988861 
	C277.133331,454.266907 274.996613,454.555115 272.437866,454.345154 
	C272.012238,447.706177 272.022461,441.560608 272.000671,435.415161 
	C271.963135,424.818207 267.470306,419.597412 256.972900,417.437714 
	C256.981506,379.344879 256.975647,341.713623 257.437805,304.031189 
	C270.041779,303.962616 282.180756,304.104980 294.312500,303.870270 
	C302.090302,303.719818 308.322144,297.593292 308.937347,290.146667 
	C309.543701,282.806305 304.546814,275.828949 297.284943,274.336029 
	C294.719360,273.808594 291.994873,273.989044 289.341888,273.965607 
	C283.938202,273.917938 278.533783,273.951324 272.927094,273.951324 
	C272.927094,253.999542 272.947693,234.887711 272.919189,215.775940 
	C272.902802,204.792236 268.028595,199.390442 256.998596,197.522705 
	C256.982513,180.416275 256.964935,163.777924 257.338837,147.068970 
	C267.417511,145.353043 271.934540,140.096558 271.997345,130.319778 
	C272.040192,123.653778 272.022522,116.987381 272.031860,110.321159 
	C317.165253,114.794525 355.082733,133.711121 385.483643,167.380829 
	C406.810181,191.000473 420.297882,218.628006 426.420013,249.830063 
	C427.505035,255.359894 428.078796,260.990051 428.390320,266.981262 
	C422.082336,267.386383 416.265106,267.206299 410.466034,267.453613 
	C407.368378,267.585724 404.082977,267.927704 401.265656,269.097900 
	C394.642365,271.848907 391.586670,278.588409 393.007019,285.987976 
	C394.291718,292.680573 400.208374,297.368713 408.391602,297.670349 
	C415.187531,297.920837 422.000458,297.710114 428.805878,297.703735 
z"/>
<path fill="#135E70" opacity="1.000000" stroke="none" 
	d="
M428.884003,297.292175 
	C422.000458,297.710114 415.187531,297.920837 408.391602,297.670349 
	C400.208374,297.368713 394.291718,292.680573 393.007019,285.987976 
	C391.586670,278.588409 394.642365,271.848907 401.265656,269.097900 
	C404.082977,267.927704 407.368378,267.585724 410.466034,267.453613 
	C416.265106,267.206299 422.082336,267.386383 428.345825,267.425079 
	C428.853790,277.267853 428.907959,287.074249 428.884003,297.292175 
z"/>
<path fill="#125D6F" opacity="1.000000" stroke="none" 
	d="
M256.958374,417.899261 
	C267.470306,419.597412 271.963135,424.818207 272.000671,435.415161 
	C272.022461,441.560608 272.012238,447.706177 272.026245,454.301392 
	C267.332550,455.110840 262.628998,455.470612 257.516357,455.916840 
	C252.365692,455.655365 247.624115,455.307373 242.437927,454.439819 
	C241.994629,447.778107 241.979385,441.635895 242.000900,435.493805 
	C242.038040,424.890900 246.342468,419.840118 256.958374,417.899261 
z"/>
<path fill="#125D6F" opacity="1.000000" stroke="none" 
	d="
M271.581299,110.208160 
	C272.022522,116.987381 272.040192,123.653778 271.997345,130.319778 
	C271.934540,140.096558 267.417511,145.353043 256.956268,146.989655 
	C246.598022,145.261627 242.081406,140.042007 242.008514,130.471725 
	C241.957047,123.711090 242.006302,116.949692 242.010590,110.188637 
	C246.775711,109.895546 251.540848,109.602455 256.718689,109.185272 
	C261.797852,109.405853 266.464294,109.750504 271.581299,110.208160 
z"/>
<path fill="#F4F2E6" opacity="1.000000" stroke="none" 
	d="
M241.591919,110.148392 
	C242.006302,116.949692 241.957047,123.711090 242.008514,130.471725 
	C242.081406,140.042007 246.598022,145.261627 256.564789,147.060242 
	C256.964935,163.777924 256.982513,180.416275 256.653870,197.655029 
	C246.635925,200.740463 242.931015,205.361679 242.917191,215.216125 
	C242.884048,238.849457 242.894180,262.482849 242.911392,286.116241 
	C242.919296,296.970337 246.408432,301.394165 256.969757,304.082336 
	C256.975647,341.713623 256.981506,379.344879 256.972900,417.437714 
	C246.342468,419.840118 242.038040,424.890900 242.000900,435.493805 
	C241.979385,441.635895 241.994629,447.778107 241.990326,454.375732 
	C226.329208,453.751495 211.124039,450.407501 196.599655,444.573608 
	C137.594727,420.873535 101.375633,377.699188 87.447784,315.772797 
	C86.180168,310.136658 85.829391,304.294281 85.564514,298.105713 
	C92.386246,297.660461 98.698959,297.772339 105.005768,297.627411 
	C114.856010,297.401062 121.341469,291.358887 121.372101,282.596680 
	C121.402824,273.807861 114.964798,267.772675 105.089699,267.569550 
	C98.450806,267.433044 91.806404,267.564545 85.164467,267.576111 
	C86.039680,251.697510 89.552536,236.335480 95.434937,221.649689 
	C118.020683,165.262863 158.770218,129.274338 217.663452,114.153206 
	C225.340164,112.182167 233.328995,111.426666 241.591919,110.148392 
z"/>
<path fill="#155F70" opacity="1.000000" stroke="none" 
	d="
M85.093544,267.965271 
	C91.806404,267.564545 98.450806,267.433044 105.089699,267.569550 
	C114.964798,267.772675 121.402824,273.807861 121.372101,282.596680 
	C121.341469,291.358887 114.856010,297.401062 105.005768,297.627411 
	C98.698959,297.772339 92.386246,297.660461 85.619766,297.658875 
	C85.116440,287.887512 85.069527,278.120972 85.093544,267.965271 
z"/>
<path fill="#115D6F" opacity="1.000000" stroke="none" 
	d="
M257.437805,304.031189 
	C246.408432,301.394165 242.919296,296.970337 242.911392,286.116241 
	C242.894180,262.482849 242.884048,238.849457 242.917191,215.216125 
	C242.931015,205.361679 246.635925,200.740463 256.652435,198.123108 
	C268.028595,199.390442 272.902802,204.792236 272.919189,215.775940 
	C272.947693,234.887711 272.927094,253.999542 272.927094,273.951324 
	C278.533783,273.951324 283.938202,273.917938 289.341888,273.965607 
	C291.994873,273.989044 294.719360,273.808594 297.284943,274.336029 
	C304.546814,275.828949 309.543701,282.806305 308.937347,290.146667 
	C308.322144,297.593292 302.090302,303.719818 294.312500,303.870270 
	C282.180756,304.104980 270.041779,303.962616 257.437805,304.031189 
z"/>
</svg>
